<svg xmlns="http://www.w3.org/2000/svg" xmlns:xlink="http://www.w3.org/1999/xlink" width="500" zoomAndPan="magnify" viewBox="0 0 375 374.999991" height="500" preserveAspectRatio="xMidYMid meet" version="1.0"><defs><clipPath id="6004b06cc0"><path d="M 64 159 L 311 159 L 311 341.261719 L 64 341.261719 Z M 64 159 " clip-rule="nonzero"/></clipPath><clipPath id="9fe49029b0"><path d="M 8.0625 33.761719 L 366.5625 33.761719 L 366.5625 240 L 8.0625 240 Z M 8.0625 33.761719 " clip-rule="nonzero"/></clipPath></defs><g clip-path="url(#6004b06cc0)"><path fill="#222831" d="M 283.933594 172.34375 L 283.933594 254.546875 L 187.496094 310.230469 L 91.054688 254.546875 L 91.054688 172.34375 L 64.1875 159.824219 L 64.1875 270.058594 L 187.496094 341.25 L 310.800781 270.058594 L 310.800781 159.824219 L 283.933594 172.34375 " fill-opacity="1" fill-rule="nonzero"/></g><path fill="#00adb5" d="M 269.101562 245.980469 L 187.496094 293.101562 L 105.886719 245.980469 L 105.886719 146.855469 L 187.496094 99.746094 L 269.101562 146.855469 L 269.101562 245.980469 " fill-opacity="1" fill-rule="nonzero"/><g clip-path="url(#9fe49029b0)"><path fill="#222831" d="M 351.273438 209.199219 C 351.273438 206.703125 350.042969 204.511719 348.152344 203.179688 L 348.152344 126.046875 L 366.816406 117.351562 L 187.496094 33.769531 L 8.171875 117.351562 L 187.496094 200.929688 L 339.640625 130.015625 L 339.640625 203.179688 C 337.761719 204.511719 336.53125 206.710938 336.53125 209.199219 C 336.53125 210.636719 336.9375 211.96875 337.648438 213.101562 L 326.429688 239.585938 L 331.300781 239.585938 L 339.75 220.898438 L 335.742188 239.585938 L 361.378906 239.585938 L 350.15625 213.101562 C 350.867188 211.96875 351.273438 210.636719 351.273438 209.199219 " fill-opacity="1" fill-rule="nonzero"/></g></svg>