<svg xmlns="http://www.w3.org/2000/svg" xmlns:xlink="http://www.w3.org/1999/xlink" width="500" zoomAndPan="magnify" viewBox="0 0 375 374.999991" height="500" preserveAspectRatio="xMidYMid meet" version="1.0"><defs><clipPath id="af2a7f2a59"><path d="M 18 58 L 360 58 L 360 318.566406 L 18 318.566406 Z M 18 58 " clip-rule="nonzero"/></clipPath><clipPath id="b9560e275d"><path d="M 41 70 L 301 70 L 301 318.566406 L 41 318.566406 Z M 41 70 " clip-rule="nonzero"/></clipPath></defs><g clip-path="url(#af2a7f2a59)"><path fill="#8ed9dd" d="M 358.800781 191.113281 L 326.441406 287.105469 C 324.253906 293.597656 318.167969 297.972656 311.3125 297.972656 L 159.019531 297.972656 C 154.75 297.972656 151.75 293.777344 153.121094 289.730469 L 157.570312 276.628906 L 155.101562 267.859375 L 160.058594 269.304688 L 185.753906 193.710938 C 187.953125 187.238281 194.035156 182.886719 200.867188 182.886719 L 234.148438 182.886719 C 234.363281 182.066406 235.039062 179.808594 236.5625 177.015625 L 199.726562 177.015625 C 195.609375 177.015625 192.699219 172.996094 193.972656 169.089844 L 223.058594 79.929688 C 224.304688 76.097656 227.078125 73.089844 230.558594 71.453125 C 230.644531 70.929688 230.769531 70.386719 230.949219 69.828125 C 233.03125 63.34375 239 61.261719 246.65625 61.785156 C 254.3125 62.308594 260.148438 56.074219 276.496094 59.578125 C 282.957031 60.960938 286.902344 64.988281 289.136719 70.085938 L 327.136719 70.085938 C 331.351562 70.085938 334.269531 74.28125 332.8125 78.230469 L 300.246094 166.519531 L 299.8125 167.6875 C 297.746094 173.296875 292.402344 177.015625 286.425781 177.015625 L 286.300781 177.015625 C 287.074219 178.890625 287.714844 180.867188 288.347656 182.886719 L 352.894531 182.886719 C 357.15625 182.894531 360.167969 187.074219 358.800781 191.113281 Z M 147.136719 287.671875 C 145.25 286.117188 142.0625 283.046875 139.03125 280.042969 L 142.277344 280.042969 C 147.074219 280.042969 151.324219 276.964844 152.820312 272.410156 L 175.882812 202.179688 L 212.347656 91.148438 C 213.90625 86.390625 210.367188 81.503906 205.359375 81.503906 L 114.035156 81.503906 C 109.234375 81.503906 104.972656 84.589844 103.480469 89.15625 L 96.214844 111.375 C 95.324219 107.621094 93.855469 103.644531 91.339844 100.191406 C 91.585938 100.261719 91.765625 100.300781 91.863281 100.316406 C 92.769531 100.449219 89.789062 93.175781 77.847656 89.9375 C 65.910156 86.691406 48.785156 89.679688 42.691406 101.484375 C 36.589844 113.292969 39.964844 125.488281 44.765625 133.921875 C 49.5625 142.355469 56.3125 149.488281 56.3125 149.488281 C 56.3125 149.488281 56.3125 149.46875 56.320312 149.433594 C 58.199219 155.039062 58.171875 162.144531 58.136719 163.796875 L 56.570312 163.894531 L 54.238281 168.566406 C 54.238281 168.566406 50.085938 169.347656 39.707031 170.898438 C 29.332031 172.460938 14.792969 189.84375 19.992188 208.78125 C 25.1875 227.722656 44.125 274.695312 44.125 274.695312 L 44.167969 274.699219 C 44.1875 274.777344 44.214844 274.847656 44.234375 274.917969 C 44.292969 275.078125 44.347656 275.246094 44.410156 275.398438 C 44.445312 275.488281 44.488281 275.578125 44.523438 275.667969 C 44.597656 275.835938 44.675781 276.003906 44.765625 276.164062 C 44.808594 276.242188 44.847656 276.316406 44.890625 276.394531 C 44.996094 276.566406 45.101562 276.734375 45.21875 276.902344 C 45.265625 276.980469 45.324219 277.046875 45.378906 277.117188 C 45.484375 277.257812 45.601562 277.398438 45.710938 277.527344 C 45.761719 277.578125 45.804688 277.632812 45.84375 277.6875 C 46.003906 277.863281 46.171875 278.023438 46.347656 278.183594 C 46.402344 278.230469 46.464844 278.28125 46.527344 278.335938 C 46.667969 278.457031 46.820312 278.574219 46.964844 278.679688 C 47.023438 278.71875 47.078125 278.761719 47.132812 278.796875 C 47.335938 278.9375 47.542969 279.0625 47.761719 279.171875 C 47.816406 279.199219 47.871094 279.226562 47.921875 279.257812 C 48.101562 279.347656 48.28125 279.429688 48.472656 279.507812 C 48.535156 279.535156 48.597656 279.5625 48.664062 279.582031 C 48.902344 279.675781 49.144531 279.75 49.398438 279.8125 C 49.433594 279.820312 49.472656 279.828125 49.515625 279.839844 C 49.738281 279.890625 49.960938 279.933594 50.191406 279.964844 C 50.261719 279.972656 50.332031 279.988281 50.40625 279.996094 C 50.679688 280.023438 50.949219 280.042969 51.230469 280.042969 L 127.929688 290.785156 L 129.789062 280.042969 L 129.824219 280.042969 L 128.324219 288.839844 C 131.308594 298.570312 141.949219 302.855469 141.949219 302.855469 C 141.949219 302.855469 142.855469 313.753906 142.988281 316.34375 C 143.121094 318.945312 145.0625 318.421875 145.320312 316.34375 C 145.558594 314.464844 145.789062 312.695312 145.828125 312.375 C 145.835938 312.375 145.835938 312.375 145.84375 312.375 C 145.886719 312.90625 146.289062 317.898438 147.394531 317.898438 C 148.566406 317.898438 151.679688 316.992188 152.453125 316.082031 C 153.234375 315.175781 154.785156 304.921875 154.660156 300.902344 C 154.535156 296.886719 151.554688 291.304688 147.136719 287.671875 Z M 147.136719 287.671875 " fill-opacity="1" fill-rule="nonzero"/></g><path fill="#00adb5" d="M 212.351562 91.148438 L 152.828125 272.410156 C 151.332031 276.964844 147.074219 280.042969 142.285156 280.042969 L 51.242188 280.042969 C 46.242188 280.042969 42.703125 275.160156 44.257812 270.410156 L 103.480469 89.15625 C 104.972656 84.59375 109.226562 81.503906 114.035156 81.503906 L 205.375 81.503906 C 210.375 81.503906 213.914062 86.390625 212.351562 91.148438 Z M 321.316406 258.453125 C 312.441406 250.53125 298.503906 250.84375 290.898438 244.828125 C 283.292969 238.808594 278.230469 231.523438 278.230469 231.523438 L 243.695312 237.542969 C 243.695312 237.542969 244.328125 245.460938 234.1875 249.578125 C 224.046875 253.695312 211.699219 254.648438 203.136719 264.46875 C 197.015625 271.496094 188.957031 288.730469 184.863281 297.972656 L 311.304688 297.972656 C 318.160156 297.972656 324.246094 293.597656 326.433594 287.105469 L 331.359375 272.492188 C 328.929688 267.722656 325.515625 262.199219 321.316406 258.453125 Z M 286.425781 177.023438 C 292.402344 177.023438 297.746094 173.296875 299.8125 167.695312 L 314.195312 128.710938 C 294.492188 120.773438 266.339844 129.953125 259.855469 135.84375 C 252.882812 142.183594 239.578125 143.449219 223.105469 154.21875 C 210.835938 162.242188 207.003906 172.375 205.847656 177.023438 Z M 286.425781 177.023438 " fill-opacity="1" fill-rule="nonzero"/><path fill="#393e46" d="M 175.890625 202.179688 L 152.828125 272.410156 C 151.332031 276.964844 147.074219 280.042969 142.285156 280.042969 L 129.800781 280.042969 L 127.941406 290.785156 L 51.242188 280.042969 C 47.789062 280.042969 45.03125 277.710938 44.171875 274.699219 L 44.132812 274.695312 C 44.132812 274.695312 25.1875 227.726562 19.996094 208.78125 C 14.808594 189.839844 29.335938 172.453125 39.714844 170.898438 C 50.09375 169.339844 54.246094 168.566406 54.246094 168.566406 L 56.578125 163.894531 L 73.183594 162.855469 L 78.425781 165.800781 L 93.9375 166.484375 L 96.535156 175.824219 C 96.535156 175.824219 108.992188 180.234375 117.816406 183.089844 C 126.640625 185.945312 136.761719 193.722656 139.351562 206.441406 C 141.949219 219.160156 145.320312 240.175781 145.320312 240.175781 L 151.03125 175.816406 L 172.832031 176.074219 Z M 244.886719 268.382812 L 184.339844 275.996094 L 160.066406 269.308594 L 155.105469 267.867188 L 157.578125 276.636719 L 162.859375 297.976562 L 255.988281 297.976562 Z M 244.886719 268.382812 " fill-opacity="1" fill-rule="nonzero"/><g clip-path="url(#b9560e275d)"><path fill="#ffcfa5" d="M 97.707031 122.117188 C 98.355469 129.902344 101.34375 144.824219 97.449219 152.734375 C 93.554688 160.648438 83.957031 159.484375 83.957031 159.484375 L 86.164062 175.964844 L 73.191406 162.863281 L 58.136719 164.15625 C 58.136719 164.15625 58.660156 151.183594 54.246094 145.210938 C 49.835938 139.242188 40.753906 128.21875 41.269531 115.5 C 41.792969 102.78125 53.074219 88.640625 74.484375 90.976562 C 95.890625 93.316406 97.058594 114.328125 97.707031 122.117188 Z M 181.65625 122.117188 C 181.65625 122.117188 181.011719 119.910156 179.191406 121.984375 C 179.191406 121.984375 178.285156 120.554688 176.859375 122.242188 C 176.859375 122.242188 175.6875 121.335938 174.914062 122.765625 C 174.136719 124.191406 169.59375 132.105469 169.59375 132.105469 C 169.59375 132.105469 168.296875 130.675781 166.480469 132.363281 C 164.664062 134.046875 159.605469 138.589844 156.359375 143.261719 C 153.113281 147.9375 153.113281 150.136719 153.761719 157.535156 C 154.410156 164.929688 154.410156 175.832031 154.410156 175.832031 L 169.585938 175.964844 C 169.585938 175.964844 168.679688 163.636719 169.328125 159.742188 C 169.976562 155.847656 176.726562 146.375 180.097656 141.320312 C 183.46875 136.261719 184.382812 124.839844 184.117188 122.117188 C 183.859375 119.394531 181.65625 122.117188 181.65625 122.117188 Z M 147.136719 287.671875 C 142.730469 284.035156 131.179688 272.101562 131.179688 272.101562 L 128.324219 288.839844 C 131.308594 298.570312 141.949219 302.855469 141.949219 302.855469 C 141.949219 302.855469 142.855469 313.753906 142.988281 316.34375 C 143.121094 318.941406 145.0625 318.421875 145.320312 316.34375 C 145.578125 314.269531 145.84375 312.328125 145.84375 312.328125 C 145.84375 312.328125 146.234375 317.90625 147.402344 317.90625 C 148.574219 317.90625 151.6875 317 152.460938 316.085938 C 153.238281 315.183594 154.792969 304.929688 154.667969 300.910156 C 154.535156 296.886719 151.554688 291.304688 147.136719 287.671875 Z M 283.765625 138.074219 C 282.726562 134.703125 288.050781 127.953125 290.25 123.542969 C 292.457031 119.136719 292.714844 117.441406 291.03125 115.5 C 289.34375 113.554688 287.269531 111.480469 287.269531 111.480469 C 287.269531 111.480469 291.289062 106.9375 291.421875 100.453125 C 291.554688 93.96875 286.097656 92.410156 286.097656 92.410156 C 286.097656 92.410156 286.789062 78.269531 277.644531 70.09375 L 242.023438 70.09375 C 236.933594 74.808594 235.726562 81.445312 235.371094 86.050781 C 234.726562 94.351562 237.316406 101.75 236.667969 108.890625 C 236.019531 116.027344 237.191406 122.253906 242.113281 127.960938 C 247.046875 133.671875 253.140625 133.28125 253.140625 133.28125 L 250.933594 141.195312 C 250.933594 141.195312 256.253906 145.734375 267.800781 143.792969 L 276.425781 177.027344 L 286.417969 177.027344 C 292.394531 177.027344 297.738281 173.304688 299.808594 167.703125 L 300.238281 166.53125 C 294.484375 157.058594 284.496094 140.460938 283.765625 138.074219 Z M 245.101562 232.792969 C 245.625 235 249.121094 250.175781 249.121094 250.175781 L 259.242188 235.257812 L 270.921875 232.792969 C 270.921875 232.792969 267.675781 228.507812 267.941406 221.765625 C 268.199219 215.015625 287.011719 206.714844 280.660156 187.769531 C 274.308594 168.824219 257.304688 166.234375 247.054688 170.773438 C 236.800781 175.316406 233.296875 183.101562 231.613281 191.015625 C 229.925781 198.925781 226.679688 202.304688 224.996094 212.683594 C 223.308594 223.0625 230.574219 229.554688 236.410156 229.679688 C 242.246094 229.804688 244.582031 230.582031 245.101562 232.792969 Z M 272.867188 282.871094 C 265.46875 273.789062 261.316406 270.027344 257.6875 270.027344 C 254.058594 270.027344 252.632812 270.285156 249.253906 272.882812 C 245.882812 275.480469 237.316406 282.746094 237.839844 284.5625 C 238.359375 286.382812 243.027344 283.269531 243.027344 283.269531 C 243.027344 283.269531 239.007812 286.125 239.523438 287.675781 C 240.046875 289.238281 245.101562 286.25 245.101562 286.25 C 245.101562 286.25 241.082031 289.230469 241.730469 290.65625 C 242.378906 292.085938 247.570312 288.839844 247.570312 288.839844 C 247.570312 288.839844 244.199219 292.601562 245.101562 293.640625 C 246.007812 294.675781 257.945312 288.191406 257.945312 288.191406 C 257.945312 288.191406 261.601562 295.625 265.253906 297.972656 L 294.054688 297.972656 C 291.015625 296.550781 279.265625 290.734375 272.867188 282.871094 Z M 272.867188 282.871094 " fill-opacity="1" fill-rule="nonzero"/></g><path fill="#222831" d="M 233.679688 80.730469 C 232.960938 85.402344 233.128906 90.515625 235.101562 94.847656 C 233.414062 96.503906 232.34375 98.921875 232.34375 101.617188 C 232.34375 106.589844 235.976562 110.636719 240.441406 110.636719 C 242.492188 110.636719 244.359375 109.78125 245.785156 108.382812 C 245.742188 108.574219 245.707031 108.757812 245.6875 108.925781 C 245.605469 109.453125 245.738281 109.933594 246.070312 110.308594 C 246.765625 111.089844 248.175781 111.167969 248.703125 111.167969 C 248.792969 111.167969 248.863281 111.167969 248.890625 111.160156 C 249.21875 111.144531 249.46875 110.867188 249.457031 110.546875 C 249.441406 110.21875 249.148438 109.984375 248.84375 109.984375 C 248.375 110.003906 247.3125 109.914062 246.957031 109.515625 C 246.886719 109.441406 246.824219 109.328125 246.859375 109.097656 C 247.011719 108.089844 247.519531 106.359375 247.882812 105.199219 C 248.019531 104.84375 248.140625 104.472656 248.238281 104.089844 C 248.25 104.042969 248.265625 104.007812 248.265625 104 C 248.273438 103.972656 248.273438 103.945312 248.273438 103.917969 C 248.417969 103.308594 248.5 102.683594 248.53125 102.042969 C 248.90625 101.945312 249.566406 101.847656 250.3125 102.027344 C 250.90625 106.4375 254.679688 109.851562 259.25 109.851562 C 264.074219 109.851562 268.019531 106.035156 268.246094 101.261719 L 278.230469 97.988281 C 280.695312 101.421875 282.859375 103.679688 282.859375 103.679688 C 284.804688 99.785156 286.363281 93.691406 286.363281 93.691406 C 289.085938 93.949219 290.257812 95.507812 290.257812 95.507812 C 293.113281 83.445312 292.855469 63.074219 276.5 59.570312 C 260.15625 56.066406 254.316406 62.292969 246.664062 61.777344 C 239 61.261719 233.03125 63.34375 230.957031 69.828125 C 228.882812 76.3125 233.679688 80.730469 233.679688 80.730469 Z M 247.101562 103.75 C 247.046875 103.929688 246.921875 104.3125 246.761719 104.816406 C 245.679688 107.550781 243.257812 109.460938 240.441406 109.460938 C 236.625 109.460938 233.519531 105.941406 233.519531 101.617188 C 233.519531 97.292969 236.625 93.773438 240.441406 93.773438 C 244.261719 93.773438 247.367188 97.292969 247.367188 101.617188 C 247.367188 102.355469 247.269531 103.066406 247.101562 103.75 Z M 259.242188 108.679688 C 254.917969 108.679688 251.398438 105.164062 251.398438 100.839844 C 251.398438 96.511719 254.917969 92.996094 259.242188 92.996094 C 263.566406 92.996094 267.085938 96.511719 267.085938 100.839844 C 267.085938 105.164062 263.566406 108.679688 259.242188 108.679688 Z M 236.410156 81.765625 C 255.222656 83.976562 271.179688 79.558594 271.179688 79.558594 C 270.753906 85.625 274.246094 92.230469 277.519531 96.992188 L 268.226562 100.035156 C 267.824219 95.433594 263.949219 91.8125 259.242188 91.8125 C 254.277344 91.8125 250.230469 95.851562 250.222656 100.816406 C 249.546875 100.707031 248.953125 100.761719 248.507812 100.84375 C 248.160156 96.226562 244.679688 92.589844 240.441406 92.589844 C 238.5625 92.589844 236.835938 93.316406 235.464844 94.511719 C 234.675781 86.964844 236.410156 81.765625 236.410156 81.765625 Z M 259.632812 101.359375 C 259.632812 102.148438 258.992188 102.789062 258.203125 102.789062 C 257.417969 102.789062 256.777344 102.148438 256.777344 101.359375 C 256.777344 100.574219 257.417969 99.933594 258.203125 99.933594 C 258.992188 99.933594 259.632812 100.566406 259.632812 101.359375 Z M 243.027344 101.484375 C 243.027344 102.273438 242.386719 102.914062 241.597656 102.914062 C 240.8125 102.914062 240.171875 102.273438 240.171875 101.484375 C 240.171875 100.699219 240.8125 100.058594 241.597656 100.058594 C 242.386719 100.058594 243.027344 100.699219 243.027344 101.484375 Z M 336.699219 255.886719 C 336.699219 255.886719 335.140625 261.210938 331.367188 272.5 C 323.042969 257.066406 313.738281 252.898438 302.835938 250.308594 C 291.9375 247.710938 287.136719 241.617188 287.136719 241.617188 C 268.714844 240.1875 265.46875 227.34375 265.992188 220.46875 C 266.511719 213.597656 271.828125 214.757812 273.511719 206.847656 C 275.199219 198.933594 267.800781 196.859375 267.800781 196.859375 L 265.859375 203.21875 C 252.882812 193.488281 254.699219 174.542969 254.699219 174.542969 L 234.070312 183.234375 C 234.070312 183.234375 235.886719 174.800781 243.800781 168.183594 C 251.710938 161.566406 275.457031 161.175781 282.984375 171.039062 C 290.507812 180.902344 288.175781 196.992188 302.96875 206.332031 C 317.761719 215.671875 311.402344 226.441406 322.429688 235.007812 C 333.457031 243.558594 336.699219 255.886719 336.699219 255.886719 Z M 224.472656 252.816406 C 216.558594 237.117188 231.996094 228.25 231.996094 228.25 L 231.910156 228.425781 C 233.730469 229.246094 237.574219 229.679688 239.78125 229.679688 C 240.429688 229.679688 241.105469 229.75 241.753906 229.902344 C 243.554688 229.628906 247.054688 229.011719 249.636719 227.992188 C 253.273438 226.566406 253.007812 228.773438 251.453125 230.070312 C 250.25 231.070312 247.019531 233.863281 245.625 235.078125 C 245.375 234.011719 245.1875 233.1875 245.097656 232.792969 C 245.617188 235.125 246.132812 237.199219 246.132812 237.199219 C 246.132812 237.199219 245.097656 237.457031 243.6875 237.542969 C 244.496094 249.300781 224.472656 252.816406 224.472656 252.816406 Z M 245.875 200.808594 C 245.875 201.558594 245.261719 202.171875 244.511719 202.171875 C 243.757812 202.171875 243.144531 201.558594 243.144531 200.808594 C 243.144531 200.054688 243.757812 199.441406 244.511719 199.441406 C 245.269531 199.441406 245.875 200.054688 245.875 200.808594 Z M 232.578125 199.832031 C 231.828125 199.832031 231.214844 199.21875 231.214844 198.46875 C 231.214844 197.714844 231.828125 197.101562 232.578125 197.101562 C 233.332031 197.101562 233.945312 197.714844 233.945312 198.46875 C 233.945312 199.226562 233.332031 199.832031 232.578125 199.832031 Z M 79.480469 123.675781 C 80.160156 123.675781 80.710938 124.226562 80.710938 124.910156 C 80.710938 125.59375 80.160156 126.140625 79.480469 126.140625 C 78.796875 126.140625 78.246094 125.59375 78.246094 124.910156 C 78.246094 124.226562 78.796875 123.675781 79.480469 123.675781 Z M 93.492188 123.285156 C 94.175781 123.285156 94.726562 123.835938 94.726562 124.519531 C 94.726562 125.203125 94.175781 125.753906 93.492188 125.753906 C 92.8125 125.753906 92.261719 125.203125 92.261719 124.519531 C 92.261719 123.835938 92.8125 123.285156 93.492188 123.285156 Z M 82.507812 117.964844 C 77.078125 115.011719 73.816406 119.777344 73.675781 119.976562 C 73.566406 120.144531 73.378906 120.242188 73.191406 120.242188 C 73.078125 120.242188 72.96875 120.207031 72.863281 120.144531 C 72.589844 119.964844 72.519531 119.601562 72.703125 119.332031 C 72.746094 119.273438 76.707031 113.472656 83.074219 116.933594 C 83.359375 117.085938 83.464844 117.449219 83.308594 117.734375 C 83.148438 118.015625 82.792969 118.117188 82.507812 117.964844 Z M 96.238281 115.671875 C 96.503906 115.867188 96.558594 116.238281 96.363281 116.496094 C 96.167969 116.761719 95.796875 116.816406 95.539062 116.621094 C 92.167969 114.148438 89.585938 117.402344 89.480469 117.539062 C 89.363281 117.695312 89.1875 117.769531 89.015625 117.769531 C 88.890625 117.769531 88.765625 117.726562 88.660156 117.644531 C 88.402344 117.449219 88.351562 117.082031 88.546875 116.824219 C 89.703125 115.324219 92.796875 113.144531 96.238281 115.671875 Z M 56.445312 140.148438 C 55.664062 138.207031 49.828125 135.21875 48.535156 128.46875 C 47.238281 121.71875 55.28125 120.554688 55.28125 120.554688 C 55.28125 120.554688 56.453125 131.066406 58.136719 135.867188 C 59.824219 140.664062 59.042969 144.949219 63.328125 150.394531 C 67.609375 155.839844 71.761719 162.199219 84.605469 161.296875 C 97.449219 160.390625 104.589844 149.878906 99.265625 136.769531 C 99.265625 136.769531 96.773438 135.933594 92.105469 135.773438 C 93.617188 133.972656 92.523438 131.351562 91.382812 128.613281 L 91.117188 127.980469 C 89.605469 124.324219 89.078125 121.761719 89.078125 121.734375 C 89.015625 121.414062 88.703125 121.203125 88.378906 121.273438 C 88.058594 121.335938 87.859375 121.648438 87.921875 121.96875 C 87.941406 122.082031 88.472656 124.664062 90.03125 128.441406 L 90.296875 129.074219 C 91.820312 132.722656 92.460938 134.578125 90.242188 135.761719 C 85.457031 135.796875 78.878906 136.5625 70.722656 139.242188 C 70.722656 139.242188 64.886719 132.757812 62.679688 127.4375 C 60.472656 122.117188 64.238281 119.523438 64.753906 111.871094 C 65.277344 104.214844 63.460938 101.882812 63.460938 101.882812 C 63.460938 101.882812 82.015625 103.566406 83.957031 102.921875 C 85.902344 102.273438 83.566406 97.597656 83.566406 97.597656 C 83.566406 97.597656 90.964844 100.195312 91.871094 100.324219 C 92.777344 100.453125 89.792969 93.183594 77.855469 89.945312 C 65.917969 86.707031 48.792969 89.6875 42.695312 101.492188 C 36.59375 113.296875 39.972656 125.496094 44.773438 133.929688 C 49.570312 142.363281 56.320312 149.496094 56.320312 149.496094 C 56.320312 149.496094 57.226562 142.097656 56.445312 140.148438 Z M 82.28125 139.589844 C 82.445312 139.3125 82.800781 139.214844 83.085938 139.382812 C 83.136719 139.410156 88.21875 142.320312 92.8125 140.386719 C 93.109375 140.261719 93.457031 140.398438 93.582031 140.699219 C 93.710938 141 93.570312 141.347656 93.269531 141.472656 C 91.945312 142.03125 90.609375 142.238281 89.34375 142.238281 C 85.683594 142.238281 82.664062 140.496094 82.496094 140.398438 C 82.210938 140.234375 82.113281 139.878906 82.28125 139.589844 Z M 182.101562 122.882812 C 182.097656 122.929688 181.050781 128.132812 180.019531 132 C 178.933594 136.066406 177.402344 137.488281 170.367188 140.941406 C 163.8125 144.160156 161.863281 149.636719 161.84375 149.683594 C 161.757812 149.929688 161.527344 150.082031 161.285156 150.082031 C 161.222656 150.082031 161.160156 150.074219 161.097656 150.046875 C 160.789062 149.941406 160.621094 149.609375 160.726562 149.300781 C 160.8125 149.058594 162.832031 143.316406 169.84375 139.878906 C 176.546875 136.589844 177.894531 135.363281 178.878906 131.691406 C 179.902344 127.863281 180.933594 122.703125 180.945312 122.644531 C 181.011719 122.324219 181.324219 122.117188 181.644531 122.1875 C 181.957031 122.25 182.167969 122.5625 182.101562 122.882812 Z M 174.351562 133.078125 L 178.113281 122.3125 C 178.21875 122.003906 178.558594 121.84375 178.863281 121.949219 C 179.171875 122.054688 179.332031 122.394531 179.226562 122.703125 L 175.464844 133.46875 C 175.382812 133.714844 175.152344 133.867188 174.910156 133.867188 C 174.847656 133.867188 174.777344 133.859375 174.714844 133.832031 C 174.40625 133.71875 174.246094 133.386719 174.351562 133.078125 Z M 170.867188 133.164062 L 175.800781 122.136719 C 175.933594 121.835938 176.28125 121.707031 176.578125 121.835938 C 176.878906 121.96875 177.011719 122.316406 176.878906 122.617188 L 171.949219 133.644531 C 171.851562 133.859375 171.636719 133.992188 171.410156 133.992188 C 171.328125 133.992188 171.25 133.976562 171.175781 133.941406 C 170.867188 133.8125 170.734375 133.460938 170.867188 133.164062 Z M 163.644531 139.703125 L 168.054688 132.828125 C 168.230469 132.558594 168.597656 132.472656 168.871094 132.648438 C 169.140625 132.820312 169.226562 133.191406 169.050781 133.460938 L 164.640625 140.335938 C 164.53125 140.511719 164.34375 140.609375 164.148438 140.609375 C 164.035156 140.609375 163.925781 140.582031 163.828125 140.519531 C 163.546875 140.34375 163.464844 139.976562 163.644531 139.703125 Z M 65.9375 179.40625 L 54.648438 170.191406 C 54.398438 169.980469 54.355469 169.613281 54.566406 169.359375 C 54.773438 169.109375 55.144531 169.066406 55.394531 169.277344 L 66.121094 178.03125 L 71.886719 166.875 C 72.035156 166.582031 72.394531 166.46875 72.679688 166.625 C 72.972656 166.769531 73.085938 167.125 72.933594 167.417969 L 66.832031 179.222656 C 66.746094 179.382812 66.601562 179.496094 66.425781 179.53125 C 66.386719 179.535156 66.351562 179.542969 66.308594 179.542969 C 66.175781 179.535156 66.042969 179.488281 65.9375 179.40625 Z M 248.019531 255.886719 C 248.773438 255.886719 249.386719 256.5 249.386719 257.253906 C 249.386719 258.003906 248.773438 258.617188 248.019531 258.617188 C 247.269531 258.617188 246.65625 258.003906 246.65625 257.253906 C 246.65625 256.496094 247.269531 255.886719 248.019531 255.886719 Z M 251.53125 139.046875 L 253.140625 133.273438 C 259.757812 132.753906 264.820312 129.769531 264.945312 132.105469 C 265.050781 133.851562 256.785156 137.78125 251.53125 139.046875 Z M 251.523438 114.78125 C 250.453125 114.78125 249.574219 115.660156 249.574219 116.730469 C 249.574219 117.8125 250.453125 118.683594 251.523438 118.683594 C 252.605469 118.683594 253.476562 117.804688 253.476562 116.730469 C 253.476562 115.652344 252.597656 114.78125 251.523438 114.78125 Z M 251.523438 117.503906 C 251.101562 117.503906 250.75 117.15625 250.75 116.730469 C 250.75 116.308594 251.101562 115.960938 251.523438 115.960938 C 251.949219 115.960938 252.296875 116.308594 252.296875 116.730469 C 252.296875 117.15625 251.949219 117.503906 251.523438 117.503906 Z M 254.820312 92.1875 C 254.582031 91.964844 254.570312 91.59375 254.785156 91.359375 C 254.910156 91.21875 257.988281 87.964844 264.011719 90.5625 C 264.3125 90.695312 264.453125 91.039062 264.320312 91.335938 C 264.1875 91.636719 263.839844 91.769531 263.546875 91.644531 C 258.324219 89.386719 255.753906 92.039062 255.648438 92.152344 C 255.53125 92.277344 255.375 92.339844 255.214844 92.339844 C 255.078125 92.339844 254.9375 92.292969 254.820312 92.1875 Z M 236.78125 92.960938 C 236.550781 92.738281 236.535156 92.367188 236.757812 92.132812 C 236.882812 92 239.835938 88.996094 244.832031 91.359375 C 245.125 91.496094 245.25 91.847656 245.109375 92.144531 C 244.96875 92.4375 244.621094 92.570312 244.324219 92.425781 C 240.117188 90.4375 237.707031 92.847656 237.601562 92.945312 C 237.484375 93.066406 237.328125 93.128906 237.175781 93.128906 C 237.039062 93.121094 236.890625 93.066406 236.78125 92.960938 Z M 285.292969 111.765625 C 284.621094 111.570312 283.785156 111.355469 282.882812 111.167969 C 283.808594 112.183594 285.070312 113.828125 285.988281 116.058594 C 286.113281 116.355469 285.96875 116.703125 285.667969 116.824219 C 285.589844 116.851562 285.515625 116.863281 285.445312 116.863281 C 285.214844 116.863281 284.992188 116.726562 284.902344 116.503906 C 283.425781 112.9375 280.953125 110.917969 280.925781 110.894531 C 280.890625 110.867188 280.875 110.832031 280.847656 110.804688 C 279.871094 110.671875 278.917969 110.609375 278.074219 110.664062 C 278.988281 111.640625 280.464844 113.425781 281.445312 115.644531 C 281.578125 115.945312 281.441406 116.292969 281.148438 116.425781 C 281.070312 116.460938 280.988281 116.472656 280.910156 116.472656 C 280.6875 116.472656 280.472656 116.34375 280.375 116.121094 C 279.226562 113.5 277.269531 111.488281 276.675781 110.910156 C 276.53125 110.957031 276.382812 111.015625 276.257812 111.082031 C 273.324219 112.617188 270.34375 116.976562 270.34375 118.996094 C 270.34375 120.429688 271 121.335938 271.390625 121.761719 C 275.910156 118.945312 275.902344 118.070312 275.894531 118.035156 C 275.695312 117.769531 274.015625 118.144531 272.363281 119.003906 C 272.078125 119.148438 271.722656 119.039062 271.570312 118.753906 C 271.425781 118.464844 271.535156 118.105469 271.820312 117.957031 C 272.746094 117.476562 275.847656 116.015625 276.84375 117.351562 C 277.042969 117.617188 277.113281 117.945312 277.042969 118.292969 C 276.90625 119.03125 276.160156 120.230469 271.675781 122.972656 C 268.289062 126.140625 266.964844 129.4375 266.964844 134.703125 C 266.964844 139.589844 268.34375 143.546875 268.359375 143.589844 C 268.472656 143.894531 268.308594 144.230469 267.996094 144.34375 C 267.933594 144.363281 267.863281 144.375 267.800781 144.375 C 267.558594 144.375 267.335938 144.222656 267.246094 143.988281 C 267.183594 143.820312 265.78125 139.808594 265.78125 134.710938 C 265.78125 129.359375 267.140625 125.78125 270.457031 122.511719 C 269.925781 121.914062 269.160156 120.75 269.160156 119.015625 C 269.160156 116.378906 272.585938 111.691406 275.707031 110.058594 C 278.875 108.410156 286.230469 110.824219 286.546875 110.929688 C 286.851562 111.035156 287.019531 111.371094 286.921875 111.675781 C 286.90625 111.710938 286.886719 111.730469 286.871094 111.765625 C 287.785156 112.851562 289.304688 114.902344 290.042969 117.289062 C 290.140625 117.601562 289.964844 117.929688 289.652344 118.027344 C 289.597656 118.046875 289.535156 118.054688 289.476562 118.054688 C 289.226562 118.054688 288.988281 117.894531 288.914062 117.636719 C 287.925781 114.417969 285.320312 111.792969 285.292969 111.765625 Z M 285.855469 104.683594 C 285.820312 104.042969 285.785156 103.308594 285.90625 102.445312 C 286.335938 99.285156 288.890625 98.253906 288.996094 98.210938 C 289.296875 98.09375 289.644531 98.246094 289.757812 98.546875 C 289.875 98.847656 289.722656 99.1875 289.421875 99.304688 C 289.339844 99.339844 287.402344 100.140625 287.066406 102.601562 C 286.964844 103.351562 286.996094 104.027344 287.027344 104.621094 C 287.109375 106.234375 287.179688 107.636719 284.296875 108.410156 C 284.246094 108.421875 284.191406 108.429688 284.140625 108.429688 C 283.882812 108.429688 283.648438 108.253906 283.570312 107.992188 C 283.488281 107.675781 283.675781 107.351562 283.988281 107.265625 C 285.960938 106.746094 285.933594 106.1875 285.855469 104.683594 Z M 158.820312 129.382812 L 122.035156 100.449219 C 121.453125 99.988281 120.679688 99.84375 119.960938 100.050781 C 119.242188 100.265625 118.679688 100.816406 118.441406 101.519531 L 108.796875 130.453125 C 108.558594 131.164062 108.675781 131.917969 109.109375 132.523438 C 109.546875 133.128906 110.222656 133.476562 110.96875 133.476562 L 157.398438 133.476562 C 158.386719 133.476562 159.242188 132.871094 159.5625 131.929688 C 159.890625 130.996094 159.597656 129.992188 158.820312 129.382812 Z M 119.558594 101.898438 C 119.675781 101.546875 119.941406 101.285156 120.296875 101.179688 C 120.398438 101.144531 120.511719 101.128906 120.621094 101.128906 C 120.867188 101.128906 121.101562 101.214844 121.304688 101.367188 L 128.707031 107.191406 C 124.640625 111.675781 118.023438 111.125 116.539062 110.9375 Z M 110.96875 132.300781 C 110.605469 132.300781 110.277344 132.132812 110.0625 131.839844 C 109.855469 131.546875 109.796875 131.179688 109.910156 130.835938 L 111.882812 124.917969 L 121.777344 124.917969 L 119.167969 132.300781 Z M 120.421875 132.300781 L 123.171875 124.519531 C 123.234375 124.339844 123.207031 124.136719 123.09375 123.984375 C 122.984375 123.828125 122.800781 123.730469 122.613281 123.730469 L 112.269531 123.730469 L 116.15625 112.078125 C 116.507812 112.136719 117.460938 112.269531 118.769531 112.269531 C 121.703125 112.269531 126.363281 111.597656 129.628906 107.929688 L 151.179688 124.882812 C 150.058594 125.648438 147.367188 127.9375 147.089844 132.300781 Z M 158.457031 131.546875 C 158.332031 131.910156 157.988281 132.300781 157.40625 132.300781 L 148.289062 132.300781 C 148.609375 127.855469 151.742188 125.898438 152.175781 125.65625 L 158.09375 130.3125 C 158.546875 130.667969 158.582031 131.183594 158.457031 131.546875 Z M 140.800781 110.734375 C 140.242188 110.082031 140.089844 109.183594 140.339844 108.0625 C 140.96875 105.234375 143.59375 104.488281 144.894531 104.488281 C 145.222656 104.488281 145.488281 104.753906 145.488281 105.078125 C 145.488281 105.40625 145.222656 105.664062 144.902344 105.671875 C 144.777344 105.671875 142.074219 105.726562 141.496094 108.324219 C 141.328125 109.0625 141.40625 109.621094 141.707031 109.984375 C 142.222656 110.597656 143.292969 110.554688 143.308594 110.554688 C 143.636719 110.539062 143.914062 110.785156 143.925781 111.113281 C 143.949219 111.4375 143.699219 111.71875 143.371094 111.730469 C 143.363281 111.730469 143.320312 111.730469 143.257812 111.730469 C 142.863281 111.722656 141.574219 111.648438 140.800781 110.734375 Z M 130.25 139.082031 C 130.386719 138.253906 130.089844 137.71875 129.808594 137.410156 C 128.910156 136.410156 127.070312 136.484375 126.863281 136.492188 C 126.613281 136.507812 126.394531 136.679688 126.328125 136.917969 L 123.902344 145.394531 C 123.855469 145.5625 123.882812 145.742188 123.980469 145.882812 C 124.078125 146.027344 124.230469 146.117188 124.40625 146.140625 C 124.460938 146.144531 124.886719 146.1875 125.46875 146.1875 C 127.03125 146.1875 129.765625 145.875 130.074219 143.730469 C 130.183594 142.929688 130.019531 142.230469 129.574219 141.652344 C 129.378906 141.394531 129.140625 141.195312 128.898438 141.019531 C 129.539062 140.671875 130.089844 140.066406 130.25 139.082031 Z M 128.910156 143.570312 C 128.730469 144.824219 126.578125 145.046875 125.246094 145.011719 L 126.363281 141.117188 C 126.445312 141.304688 126.621094 141.445312 126.828125 141.472656 C 126.84375 141.472656 128.074219 141.632812 128.644531 142.386719 C 128.898438 142.707031 128.980469 143.09375 128.910156 143.570312 Z M 129.085938 138.886719 C 128.835938 140.378906 127.132812 140.316406 126.941406 140.300781 C 126.800781 140.289062 126.667969 140.332031 126.5625 140.40625 L 127.34375 137.675781 C 127.859375 137.703125 128.605469 137.828125 128.9375 138.199219 C 129.035156 138.304688 129.15625 138.492188 129.085938 138.886719 Z M 103.222656 118.027344 C 103.496094 118.207031 103.863281 118.132812 104.039062 117.859375 L 104.886719 116.570312 L 107.871094 116.570312 C 108 116.570312 108.121094 116.515625 108.21875 116.445312 L 108.683594 118.207031 C 108.753906 118.472656 108.992188 118.648438 109.253906 118.648438 C 109.304688 118.648438 109.351562 118.640625 109.410156 118.625 C 109.722656 118.542969 109.910156 118.222656 109.828125 117.910156 L 108.097656 111.335938 C 108.042969 111.113281 107.855469 110.9375 107.625 110.902344 C 107.394531 110.867188 107.164062 110.964844 107.039062 111.160156 L 103.0625 117.210938 C 102.875 117.476562 102.953125 117.847656 103.222656 118.027344 Z M 107.292969 112.910156 L 107.945312 115.402344 C 107.917969 115.394531 107.898438 115.386719 107.871094 115.386719 L 105.660156 115.386719 Z M 132.136719 271.679688 C 132.050781 271.929688 131.820312 272.082031 131.578125 272.082031 C 131.515625 272.082031 131.453125 272.074219 131.398438 272.054688 L 70.5 252.160156 C 70.304688 252.097656 70.152344 251.933594 70.113281 251.730469 L 59.386719 203.808594 C 59.316406 203.488281 59.515625 203.175781 59.832031 203.105469 C 60.152344 203.035156 60.464844 203.238281 60.535156 203.550781 L 71.183594 251.144531 L 124.566406 268.585938 C 124.40625 267.144531 123.449219 258.066406 122.511719 239.695312 C 121.484375 219.765625 117.382812 205.894531 117.339844 205.753906 C 117.25 205.441406 117.425781 205.113281 117.738281 205.023438 C 118.050781 204.929688 118.378906 205.105469 118.46875 205.417969 C 118.511719 205.558594 122.65625 219.558594 123.6875 239.636719 C 124.710938 259.621094 125.75 268.570312 125.761719 268.664062 C 125.777344 268.765625 125.75 268.871094 125.707031 268.960938 L 131.757812 270.941406 C 132.066406 271.039062 132.234375 271.371094 132.136719 271.679688 Z M 144.226562 295.324219 C 144.351562 295.632812 147.207031 303 146.34375 311.859375 C 146.316406 312.167969 146.058594 312.390625 145.757812 312.390625 C 145.738281 312.390625 145.71875 312.390625 145.703125 312.390625 C 145.382812 312.355469 145.144531 312.070312 145.175781 311.75 C 146.015625 303.179688 143.167969 295.832031 143.132812 295.761719 C 143.015625 295.464844 143.160156 295.117188 143.46875 294.996094 C 143.765625 294.878906 144.109375 295.023438 144.226562 295.324219 Z M 150.667969 303.65625 C 150.84375 308.640625 150.328125 315.925781 150.320312 315.996094 C 150.300781 316.3125 150.042969 316.546875 149.738281 316.546875 C 149.722656 316.546875 149.707031 316.546875 149.695312 316.546875 C 149.367188 316.527344 149.125 316.242188 149.152344 315.921875 C 149.160156 315.851562 149.667969 308.628906 149.492188 303.695312 C 149.324219 298.847656 147.648438 294.59375 147.632812 294.550781 C 147.515625 294.253906 147.660156 293.902344 147.960938 293.785156 C 148.261719 293.667969 148.609375 293.8125 148.726562 294.113281 C 148.796875 294.292969 150.496094 298.589844 150.667969 303.65625 Z M 143.265625 249.820312 L 144.304688 238.40625 C 144.332031 238.085938 144.617188 237.839844 144.945312 237.871094 C 145.273438 237.898438 145.507812 238.183594 145.480469 238.511719 L 144.441406 249.925781 C 144.414062 250.234375 144.15625 250.460938 143.859375 250.460938 C 143.835938 250.460938 143.824219 250.460938 143.800781 250.460938 C 143.476562 250.425781 143.238281 250.140625 143.265625 249.820312 Z M 93.945312 166.492188 L 86.160156 175.964844 L 84.863281 165.453125 Z M 230.671875 205.539062 C 231.402344 203.710938 234.3125 200.792969 234.433594 200.667969 C 234.660156 200.4375 235.039062 200.4375 235.269531 200.667969 C 235.496094 200.898438 235.496094 201.273438 235.269531 201.503906 C 234.472656 202.296875 232.292969 204.652344 231.765625 205.976562 C 231.269531 207.210938 233.21875 208.351562 233.242188 208.359375 C 233.519531 208.519531 233.617188 208.878906 233.457031 209.160156 C 233.34375 209.347656 233.152344 209.457031 232.949219 209.457031 C 232.851562 209.457031 232.746094 209.429688 232.65625 209.382812 C 232.539062 209.320312 229.800781 207.722656 230.671875 205.539062 Z M 242.058594 211.964844 C 242.261719 212.222656 242.21875 212.59375 241.960938 212.796875 C 239.800781 214.5 237.496094 214.941406 235.6875 214.941406 C 233.839844 214.941406 232.511719 214.480469 232.40625 214.445312 C 232.097656 214.335938 231.9375 214 232.050781 213.695312 C 232.160156 213.386719 232.496094 213.226562 232.800781 213.339844 C 232.851562 213.351562 237.398438 214.914062 241.238281 211.875 C 241.488281 211.667969 241.855469 211.714844 242.058594 211.964844 Z M 242.902344 193.480469 C 242.617188 193.632812 242.253906 193.515625 242.109375 193.222656 C 241.960938 192.929688 242.074219 192.574219 242.367188 192.429688 C 242.429688 192.394531 248.96875 189.132812 252.835938 195.945312 C 252.996094 196.230469 252.898438 196.585938 252.609375 196.746094 C 252.519531 196.796875 252.417969 196.824219 252.320312 196.824219 C 252.109375 196.824219 251.914062 196.71875 251.804688 196.523438 C 248.496094 190.695312 243.132812 193.363281 242.902344 193.480469 Z M 237.914062 191.734375 C 238.109375 191.992188 238.0625 192.359375 237.804688 192.5625 C 237.699219 192.644531 237.574219 192.679688 237.449219 192.679688 C 237.265625 192.679688 237.09375 192.601562 236.980469 192.449219 C 236.207031 191.433594 235.34375 190.863281 234.417969 190.75 C 233.082031 190.589844 232 191.460938 231.988281 191.46875 C 231.738281 191.675781 231.367188 191.636719 231.160156 191.382812 C 230.949219 191.132812 230.984375 190.765625 231.234375 190.554688 C 231.289062 190.507812 232.699219 189.363281 234.535156 189.574219 C 235.796875 189.71875 236.933594 190.445312 237.914062 191.734375 Z M 189.234375 296.46875 C 189.296875 296.789062 189.097656 297.09375 188.777344 297.164062 C 188.734375 297.171875 188.699219 297.175781 188.65625 297.175781 C 188.386719 297.175781 188.136719 296.980469 188.078125 296.703125 L 184.101562 277.328125 C 184.039062 277.007812 184.242188 276.699219 184.5625 276.628906 C 184.875 276.5625 185.1875 276.769531 185.257812 277.089844 Z M 241.019531 285.359375 C 240.902344 285.503906 240.734375 285.582031 240.554688 285.582031 C 240.429688 285.582031 240.296875 285.539062 240.191406 285.457031 C 239.933594 285.253906 239.894531 284.882812 240.09375 284.625 C 244.609375 278.902344 249.554688 275.792969 249.761719 275.667969 C 250.042969 275.496094 250.402344 275.585938 250.570312 275.855469 C 250.746094 276.136719 250.652344 276.496094 250.382812 276.664062 C 250.332031 276.699219 245.394531 279.804688 241.019531 285.359375 Z M 253.613281 279.988281 C 253.539062 280.023438 246.125 283.609375 243.136719 288.582031 C 243.027344 288.761719 242.832031 288.867188 242.628906 288.867188 C 242.527344 288.867188 242.421875 288.839844 242.332031 288.785156 C 242.050781 288.617188 241.960938 288.253906 242.128906 287.976562 C 245.296875 282.695312 252.792969 279.074219 253.105469 278.921875 C 253.40625 278.78125 253.753906 278.90625 253.894531 279.199219 C 254.03125 279.492188 253.90625 279.847656 253.613281 279.988281 Z M 255.648438 283.238281 C 255.757812 283.546875 255.597656 283.882812 255.292969 283.992188 C 255.242188 284.011719 250.0625 285.894531 247.09375 290.011719 C 246.976562 290.171875 246.800781 290.253906 246.613281 290.253906 C 246.496094 290.253906 246.378906 290.21875 246.273438 290.144531 C 246.007812 289.953125 245.953125 289.585938 246.140625 289.320312 C 249.324219 284.898438 254.671875 282.960938 254.894531 282.886719 C 255.203125 282.773438 255.535156 282.933594 255.648438 283.238281 Z M 268.34375 205.621094 C 268.15625 202.617188 270.164062 200.585938 270.246094 200.496094 C 270.476562 200.265625 270.851562 200.265625 271.082031 200.496094 C 271.3125 200.722656 271.3125 201.09375 271.082031 201.324219 C 271.070312 201.335938 269.371094 203.085938 269.523438 205.542969 C 269.683594 208.128906 267.933594 209.222656 266.988281 209.445312 C 266.945312 209.453125 266.898438 209.457031 266.855469 209.457031 C 266.589844 209.457031 266.347656 209.277344 266.285156 209 C 266.207031 208.6875 266.410156 208.367188 266.722656 208.296875 C 266.898438 208.253906 268.476562 207.800781 268.34375 205.621094 Z M 88.066406 183.617188 C 88.972656 183.617188 89.710938 184.355469 89.710938 185.261719 C 89.710938 186.167969 88.972656 186.90625 88.066406 186.90625 C 87.160156 186.90625 86.421875 186.167969 86.421875 185.261719 C 86.421875 184.347656 87.15625 183.617188 88.066406 183.617188 Z M 101.640625 258.089844 C 101.640625 257.183594 102.378906 256.445312 103.285156 256.445312 C 104.191406 256.445312 104.929688 257.183594 104.929688 258.089844 C 104.929688 258.996094 104.191406 259.734375 103.285156 259.734375 C 102.378906 259.734375 101.640625 259 101.640625 258.089844 Z M 97.75 221.675781 C 98.65625 221.675781 99.394531 222.414062 99.394531 223.320312 C 99.394531 224.226562 98.65625 224.964844 97.75 224.964844 C 96.84375 224.964844 96.105469 224.226562 96.105469 223.320312 C 96.105469 222.414062 96.84375 221.675781 97.75 221.675781 Z M 97.75 221.675781 " fill-opacity="1" fill-rule="nonzero"/></svg>